<?xml version="1.0" standalone="no"?>
<!DOCTYPE svg PUBLIC "-//W3C//DTD SVG 20010904//EN"
 "http://www.w3.org/TR/2001/REC-SVG-20010904/DTD/svg10.dtd">
<svg version="1.0" xmlns="http://www.w3.org/2000/svg"
 width="453.000000pt" height="340.000000pt" viewBox="0 0 453.000000 340.000000"
 preserveAspectRatio="xMidYMid meet">

<g transform="translate(0.000000,340.000000) scale(0.100000,-0.100000)"
fill="#000000" stroke="none">
<path d="M1930 2945 c-445 -85 -814 -395 -964 -813 -65 -182 -89 -449 -57
-632 30 -168 102 -348 199 -495 60 -91 197 -233 293 -305 241 -180 562 -270
857 -241 357 36 661 202 880 480 l19 24 129 -99 c513 -392 516 -394 551 -394
46 0 68 13 103 62 32 44 39 100 17 129 -10 13 -579 454 -650 504 -19 13 -18
16 16 112 58 163 72 246 72 433 0 172 -7 220 -52 370 -106 357 -404 673 -754
801 -156 57 -230 70 -414 74 -120 3 -192 0 -245 -10z m458 -195 c205 -50 388
-154 528 -302 402 -424 399 -1075 -8 -1489 -94 -96 -181 -157 -309 -218 -138
-65 -243 -91 -400 -98 -314 -14 -568 81 -795 299 -213 204 -324 468 -324 767
0 219 55 404 173 584 168 254 426 422 727 472 112 19 298 12 408 -15z"/>
<path d="M1365 1729 l0 -651 380 5 c299 3 391 7 430 19 118 35 190 93 234 187
22 48 26 69 26 151 -1 77 -5 105 -24 147 -29 65 -91 124 -157 148 -65 24 -71
31 -37 43 50 18 111 70 140 119 26 44 28 56 28 153 0 92 -3 111 -25 153 -42
83 -116 135 -232 162 -49 11 -139 15 -413 15 l-350 0 0 -651z m662 378 c42
-22 53 -44 53 -106 0 -42 -5 -56 -29 -83 l-29 -33 -176 -3 -176 -3 0 119 c0
65 3 122 8 126 4 4 77 6 162 4 122 -3 162 -7 187 -21z m12 -495 c100 -50 106
-186 12 -249 -32 -22 -44 -23 -207 -23 l-174 0 0 138 c0 76 3 142 7 145 3 4
79 7 167 7 134 0 167 -3 195 -18z"/>
<path d="M2605 1730 l0 -650 165 0 165 0 0 650 0 650 -165 0 -165 0 0 -650z"/>
</g>
</svg>
