<svg width="36" height="36" viewBox="0 0 36 36" fill="none" xmlns="http://www.w3.org/2000/svg">
<g clip-path="url(#clip0_28_5978)">
<path d="M7.12112 17.4284C4.8181 17.4284 2.94461 15.572 2.94461 13.2908C2.94461 11.0093 4.8181 9.15283 7.12112 9.15283C9.42385 9.15283 11.2971 11.009 11.2971 13.2908C11.2971 15.5722 9.42385 17.4284 7.12112 17.4284ZM7.12112 10.3141C5.45828 10.3141 4.1059 11.6495 4.1059 13.2908C4.1059 14.9318 5.45828 16.2672 7.12112 16.2672C8.78338 16.2672 10.1358 14.9318 10.1358 13.2908C10.1358 11.6495 8.78338 10.3141 7.12112 10.3141Z" fill="white"/>
<path d="M8.80125 28.8848H1.51767C0.680727 28.8848 0 28.2084 0 27.3768V25.4775C0 21.5893 3.1944 18.4258 7.12113 18.4258C8.66545 18.4258 10.1355 18.9078 11.3711 19.8193C11.6291 20.0099 11.6841 20.3733 11.4935 20.6316C11.303 20.8893 10.9398 20.9443 10.6815 20.7541C9.64699 19.9909 8.41595 19.5871 7.12113 19.5871C3.83487 19.5871 1.16129 22.2298 1.16129 25.4775V27.3768C1.16129 27.5679 1.32119 27.7235 1.51767 27.7235H8.80154C9.12191 27.7235 9.38218 27.9835 9.38218 28.3042C9.38218 28.6246 9.12191 28.8848 8.80125 28.8848Z" fill="white"/>
<path d="M34.4823 28.4454H27.1988C26.8784 28.4454 26.6181 28.1854 26.6181 27.8648C26.6181 27.5444 26.8784 27.2841 27.1988 27.2841H34.4826C34.6791 27.2841 34.839 27.1287 34.839 26.9376V25.0384C34.839 21.7901 32.1654 19.148 28.8792 19.148C27.5067 19.148 26.1668 19.6206 25.1061 20.4791C24.8572 20.6807 24.4917 20.6424 24.2896 20.3932C24.088 20.144 24.126 19.7782 24.3758 19.5764C25.6422 18.5515 27.2416 17.9867 28.8792 17.9867C32.8056 17.9867 36 21.1499 36 25.0384V26.9376C36 27.7689 35.3193 28.4454 34.4823 28.4454Z" fill="white"/>
<path d="M28.8789 17.1415C26.5761 17.1415 24.7029 15.2853 24.7029 13.0039C24.7029 10.7224 26.5761 8.86591 28.8789 8.86591C31.1819 8.86591 33.0554 10.7221 33.0554 13.0039C33.0554 15.2856 31.1816 17.1415 28.8789 17.1415ZM28.8789 10.0272C27.2166 10.0272 25.8642 11.3626 25.8642 13.0039C25.8642 14.6451 27.2166 15.9802 28.8789 15.9802C30.5417 15.9802 31.8941 14.6451 31.8941 13.0039C31.8941 11.3626 30.5414 10.0272 28.8789 10.0272Z" fill="white"/>
<path d="M25.8807 30.7742H10.1193C9.0723 30.7742 8.22061 29.9287 8.22061 28.8894V26.2181C8.22061 20.8794 12.6072 16.5362 18 16.5362C23.3928 16.5362 27.7794 20.8794 27.7794 26.2181V28.8894C27.7794 29.9287 26.9277 30.7742 25.8807 30.7742ZM18 17.6978C13.248 17.6978 9.3819 21.5202 9.3819 26.2183V28.8896C9.3819 29.2886 9.71277 29.6132 10.1193 29.6132H25.8804C26.287 29.6132 26.6178 29.2886 26.6178 28.8896V26.2183C26.6181 21.5202 22.7521 17.6978 18 17.6978Z" fill="white"/>
<path d="M17.7981 15.8578C14.8393 15.8578 12.4317 13.4731 12.4317 10.5415C12.4317 7.61022 14.8391 5.22583 17.7981 5.22583C20.7575 5.22583 23.1648 7.6105 23.1648 10.5418C23.1648 13.4734 20.7572 15.8578 17.7981 15.8578ZM17.7981 6.38712C15.4795 6.38712 13.593 8.25097 13.593 10.5418C13.593 12.8329 15.4795 14.6968 17.7981 14.6968C20.117 14.6968 22.0036 12.8329 22.0036 10.5418C22.0036 8.25097 20.117 6.38712 17.7981 6.38712Z" fill="white"/>
</g>
<defs>
<clipPath id="clip0_28_5978">
<rect width="36" height="36" fill="white"/>
</clipPath>
</defs>
</svg>
