<svg width="36" height="30" viewBox="0 0 36 30" fill="none" xmlns="http://www.w3.org/2000/svg">
<path d="M4.01091 21.7807L0.168331 25.5554C0.0886632 25.6336 0.0340943 25.7339 0.0115753 25.8432C-0.0109437 25.9526 -0.000393467 26.0662 0.041882 26.1696C0.0841575 26.273 0.156245 26.3614 0.248961 26.4237C0.341677 26.4859 0.450826 26.5192 0.562503 26.5192H11.274C12.0427 27.5842 13.0533 28.4514 14.2226 29.0495C15.392 29.6476 16.6866 29.9595 18 29.9595C19.3135 29.9595 20.6081 29.6476 21.7774 29.0495C22.9468 28.4514 23.9574 27.5842 24.726 26.5192H35.4375C35.5492 26.5192 35.6583 26.4859 35.751 26.4237C35.8438 26.3614 35.9158 26.273 35.9581 26.1696C36.0004 26.0662 36.0109 25.9526 35.9884 25.8432C35.9659 25.7339 35.9113 25.6336 35.8317 25.5554L31.9891 21.7807L35.8443 17.744C35.9204 17.6644 35.9714 17.5641 35.991 17.4557C36.0106 17.3473 35.998 17.2356 35.9547 17.1343C35.9114 17.033 35.8393 16.9467 35.7473 16.886C35.6554 16.8253 35.5477 16.793 35.4375 16.793H34.8666C34.991 15.7015 34.7339 14.6007 34.139 13.6772C34.0687 13.5686 33.9631 13.4876 33.8399 13.4478C32.8064 13.1013 31.8192 12.6294 30.9004 12.0427C30.8364 12.0026 30.7649 11.9759 30.6903 11.9641C30.6157 11.9522 30.5395 11.9556 30.4662 11.9738C30.3929 11.9921 30.3241 12.0249 30.2638 12.0704C30.2034 12.1159 30.1529 12.173 30.1151 12.2384L29.1209 13.9603L28.1266 12.2384C28.0889 12.173 28.0383 12.1159 27.978 12.0704C27.9177 12.0249 27.8488 11.9921 27.7755 11.9738C27.7022 11.9556 27.626 11.9522 27.5514 11.9641C27.4768 11.9759 27.4053 12.0026 27.3413 12.0427C26.6291 12.4927 25.8781 12.8783 25.0973 13.1949C24.942 12.336 24.7019 11.5557 24.3649 11.0356C24.2946 10.927 24.1889 10.846 24.0659 10.8062C22.8203 10.4037 21.5258 9.78514 20.2184 8.96754C20.1543 8.9275 20.0829 8.90077 20.0083 8.88894C19.9337 8.87711 19.8575 8.88043 19.7842 8.89869C19.7109 8.91695 19.642 8.94978 19.5817 8.99523C19.5214 9.04068 19.4708 9.09782 19.433 9.16322L18 11.6453L16.567 9.16322C16.5292 9.09782 16.4786 9.04068 16.4183 8.99523C16.358 8.94978 16.2891 8.91695 16.2158 8.89869C16.1425 8.88043 16.0663 8.87711 15.9917 8.88894C15.9171 8.90077 15.8457 8.9275 15.7816 8.96754C14.4742 9.78514 13.1801 10.4037 11.9341 10.8062C11.8111 10.846 11.7054 10.927 11.6351 11.0356C11.3007 11.5516 11.0616 12.3343 10.9062 13.1965C10.1242 12.8796 9.37201 12.4935 8.65871 12.0427C8.59466 12.0026 8.5232 11.9759 8.4486 11.9641C8.374 11.9522 8.29778 11.9556 8.22449 11.9738C8.1512 11.9921 8.08234 12.0249 8.02202 12.0704C7.9617 12.1159 7.91115 12.173 7.87338 12.2384L6.87917 13.9603L5.88516 12.2384C5.8474 12.173 5.79685 12.1159 5.73652 12.0704C5.6762 12.0249 5.60734 11.9921 5.53405 11.9738C5.46076 11.9556 5.38454 11.9522 5.30994 11.9641C5.23534 11.9759 5.16389 12.0026 5.09984 12.0427C4.1811 12.6294 3.19391 13.1013 2.16035 13.4478C2.03723 13.4876 1.93159 13.5686 1.86124 13.6772C1.26116 14.5985 1.00339 15.7011 1.13288 16.793H0.562503C0.452345 16.793 0.34461 16.8253 0.252667 16.886C0.160724 16.9467 0.0886203 17.033 0.0453019 17.1343C0.00198361 17.2356 -0.0106422 17.3473 0.00899131 17.4557C0.0286248 17.5641 0.0796532 17.6644 0.155745 17.744L4.01091 21.7807ZM1.93782 25.3942L5.19497 22.1945C5.30043 22.0909 5.36087 21.95 5.36323 21.8022C5.36558 21.6544 5.30966 21.5116 5.20756 21.4047L1.87735 17.918H10.587C10.0016 19.0771 9.69659 20.3575 9.69659 21.6561C9.69659 22.9546 10.0016 24.2351 10.587 25.3942H1.93782ZM18 28.8346C16.5802 28.8346 15.1923 28.4135 14.0119 27.6248C12.8314 26.836 11.9113 25.7149 11.3679 24.4032C10.8246 23.0915 10.6825 21.6481 10.9595 20.2556C11.2364 18.8631 11.9201 17.584 12.924 16.5801C13.928 15.5762 15.2071 14.8925 16.5996 14.6155C17.992 14.3385 19.4354 14.4807 20.7471 15.024C22.0588 15.5673 23.1799 16.4874 23.9687 17.6679C24.7575 18.8484 25.1785 20.2363 25.1785 21.6561C25.1763 23.5593 24.4194 25.3839 23.0736 26.7297C21.7278 28.0754 19.9032 28.8324 18 28.8346ZM30.7925 21.4047C30.6904 21.5116 30.6345 21.6544 30.6368 21.8022C30.6392 21.95 30.6996 22.0909 30.805 22.1945L34.0622 25.3942H25.413C25.9985 24.2351 26.3035 22.9546 26.3035 21.6561C26.3035 20.3575 25.9985 19.0771 25.413 17.918H34.1227L30.7925 21.4047ZM27.4386 13.2971L28.6335 15.3665C28.6829 15.452 28.7539 15.523 28.8394 15.5723C28.9249 15.6217 29.0219 15.6477 29.1206 15.6477C29.2194 15.6477 29.3164 15.6217 29.4019 15.5723C29.4874 15.523 29.5584 15.452 29.6078 15.3665L30.8026 13.2971C31.5938 13.7617 32.4283 14.1483 33.2943 14.4516C33.6994 15.1606 33.8535 15.9855 33.7317 16.793H25.2833C25.3426 15.9766 25.3324 15.1567 25.2528 14.3421C26.0094 14.0554 26.7407 13.7059 27.4389 13.2971H27.4386ZM12.4857 11.8087C13.6685 11.3979 14.806 10.8669 15.8804 10.2239L17.5129 13.0515C17.5623 13.137 17.6333 13.208 17.7188 13.2574C17.8043 13.3067 17.9013 13.3327 18 13.3327C18.0987 13.3327 18.1957 13.3067 18.2812 13.2574C18.3667 13.208 18.4378 13.137 18.4871 13.0515L20.1196 10.2239C21.1939 10.8668 22.3314 11.3978 23.5141 11.8085C23.9877 12.7176 24.234 14.6322 24.194 16.1327C23.4161 15.2584 22.462 14.5587 21.3942 14.0796C20.3265 13.6005 19.1695 13.3529 17.9992 13.353C16.8289 13.3532 15.6719 13.6011 14.6043 14.0804C13.5367 14.5598 12.5827 15.2598 11.805 16.1343C11.7618 14.6273 12.0081 12.7219 12.4857 11.8087ZM2.70549 14.4516C3.57146 14.1482 4.40593 13.7615 5.19715 13.2968L6.39204 15.3662C6.44141 15.4517 6.51242 15.5227 6.59793 15.5721C6.68344 15.6214 6.78043 15.6474 6.87917 15.6474C6.9779 15.6474 7.0749 15.6214 7.1604 15.5721C7.24591 15.5227 7.31692 15.4517 7.36629 15.3662L8.56111 13.2968C9.26042 13.7062 9.99289 14.0562 10.7508 14.3429C10.6703 15.1572 10.6589 15.9768 10.7165 16.793H2.26744C2.14155 15.9854 2.29615 15.159 2.70549 14.4516ZM18.0288 8.84492C18.0488 8.84539 18.0688 8.84562 18.0888 8.84562C18.9958 8.84562 19.8348 8.37453 20.4572 7.51404C21.126 6.58958 21.521 5.28113 21.6314 3.62513C21.6327 3.60685 21.633 3.58854 21.6323 3.57022C21.6065 2.62477 21.2125 1.72677 20.5344 1.06748C19.8562 0.408195 18.9475 0.039717 18.0017 0.0405287H17.9985C17.0527 0.039717 16.1439 0.408195 15.4658 1.06748C14.7876 1.72677 14.3937 2.62477 14.3678 3.57022V3.59947C14.3989 5.08369 14.7844 6.37962 15.4825 7.34712C16.1535 8.2775 17.0816 8.82333 18.0288 8.84492ZM18 1.16546C18.6489 1.16534 19.2725 1.41668 19.74 1.86668C20.2074 2.31668 20.4823 2.93033 20.5069 3.57872C20.2959 6.63929 19.0795 7.72062 18.0856 7.72062C18.0752 7.72062 18.0645 7.72062 18.0545 7.72062C16.8398 7.69257 15.5509 6.14063 15.4927 3.59103C15.5141 2.94039 15.7877 2.32358 16.2556 1.87096C16.7235 1.41833 17.349 1.16534 18 1.16546ZM23.2122 20.4321C23.1808 20.3355 23.1238 20.2492 23.0473 20.1823C22.9708 20.1155 22.8776 20.0706 22.7776 20.0525L19.8871 19.5281L18.4954 16.9411C18.4472 16.8516 18.3757 16.7768 18.2885 16.7247C18.2013 16.6726 18.1016 16.6451 18 16.6451C17.8984 16.6451 17.7987 16.6726 17.7115 16.7247C17.6243 16.7768 17.5528 16.8516 17.5047 16.9411L16.1129 19.5281L13.2224 20.0523C13.1224 20.0704 13.0293 20.1153 12.9528 20.1822C12.8762 20.249 12.8193 20.3353 12.7879 20.4319C12.7565 20.5286 12.7518 20.6319 12.7744 20.7309C12.797 20.83 12.8461 20.9211 12.9163 20.9945L14.9466 23.1176L14.5519 26.0285C14.5382 26.1292 14.5521 26.2317 14.592 26.3252C14.632 26.4186 14.6965 26.4995 14.7787 26.5592C14.8609 26.6189 14.9577 26.6553 15.0589 26.6643C15.1601 26.6734 15.2619 26.655 15.3534 26.6108L18 25.3359L20.6466 26.6109C20.7382 26.655 20.84 26.6735 20.9412 26.6644C21.0424 26.6553 21.1392 26.619 21.2214 26.5593C21.3036 26.4995 21.3681 26.4187 21.408 26.3252C21.448 26.2318 21.4618 26.1293 21.4482 26.0286L21.0535 23.1177L23.0836 20.9948C23.1539 20.9214 23.2029 20.8303 23.2256 20.7312C23.2482 20.6321 23.2436 20.5288 23.2122 20.4321ZM20.0531 22.5361C19.9947 22.5972 19.9508 22.6707 19.9247 22.7511C19.8985 22.8315 19.8909 22.9167 19.9022 23.0005L20.1929 25.1439L18.2442 24.2051C18.168 24.1684 18.0846 24.1494 18.0001 24.1494C17.9155 24.1494 17.8321 24.1684 17.7559 24.2051L15.8072 25.1439L16.0979 23.0005C16.1093 22.9167 16.1016 22.8315 16.0755 22.7511C16.0494 22.6707 16.0055 22.5972 15.947 22.5361L14.452 20.9729L16.5804 20.587C16.6636 20.5719 16.7423 20.5382 16.8106 20.4885C16.879 20.4389 16.9353 20.3744 16.9753 20.3L18 18.3951L19.0247 20.3C19.0648 20.3744 19.1211 20.4389 19.1894 20.4885C19.2578 20.5382 19.3365 20.5719 19.4197 20.587L21.548 20.9729L20.0531 22.5361ZM29.1402 11.728C29.1554 11.728 29.1706 11.7286 29.1859 11.7286C30.3906 11.7286 31.8462 10.6472 32.0505 7.58119C32.0518 7.56291 32.0521 7.54463 32.0515 7.52635C32.0307 6.7636 31.7129 6.03911 31.1659 5.50721C30.6188 4.9753 29.8856 4.67802 29.1226 4.67869H29.1193C28.3562 4.67801 27.6231 4.97527 27.076 5.50718C26.5288 6.03908 26.211 6.76358 26.1902 7.52635V7.5556C26.2148 8.72672 26.5207 9.7516 27.0745 10.5193C27.6159 11.2699 28.3689 11.7104 29.1402 11.728ZM29.1209 5.80369C29.587 5.80376 30.0351 5.98394 30.3715 6.3066C30.7079 6.62925 30.9066 7.06942 30.9261 7.53514C30.7763 9.67868 29.9382 10.6208 29.1658 10.6033C28.2895 10.5833 27.3595 9.43512 27.3151 7.54723C27.3316 7.07929 27.529 6.63599 27.8659 6.31076C28.2027 5.98552 28.6527 5.80373 29.1209 5.80369ZM6.89843 11.728C6.91369 11.728 6.92888 11.7286 6.94428 11.7286C8.14887 11.7286 9.60455 10.6472 9.80881 7.58119C9.81007 7.56291 9.81028 7.54463 9.80979 7.52635C9.78899 6.76358 9.47119 6.03909 8.92409 5.50718C8.37699 4.97528 7.64383 4.67801 6.88078 4.67869H6.87748C6.11443 4.67801 5.38127 4.97528 4.83417 5.50718C4.28707 6.03909 3.96927 6.76358 3.94847 7.52635V7.5556C3.97301 8.72672 4.27894 9.7516 4.83272 10.5193C5.3742 11.2699 6.12717 11.7104 6.89843 11.728ZM6.87917 5.80369C7.34529 5.80376 7.79336 5.98394 8.12976 6.3066C8.46617 6.62925 8.66487 7.06942 8.68437 7.53514C8.53594 9.65914 7.70928 10.6036 6.94519 10.6036C6.93816 10.6036 6.93113 10.6036 6.9241 10.6036C6.04772 10.5836 5.11777 9.4354 5.07333 7.54751C5.08971 7.07951 5.28714 6.63613 5.62401 6.31083C5.96087 5.98554 6.41087 5.80372 6.87917 5.80369Z" fill="white"/>
</svg>
