<svg width="36" height="36" viewBox="0 0 36 36" fill="none" xmlns="http://www.w3.org/2000/svg">
<mask id="mask0_30_844" style="mask-type:alpha" maskUnits="userSpaceOnUse" x="0" y="0" width="36" height="36">
<rect width="36" height="36" fill="#D9D9D9"/>
</mask>
<g mask="url(#mask0_30_844)">
<path d="M18 33C15.925 33 13.975 32.6062 12.15 31.8187C10.325 31.0312 8.7375 29.9625 7.3875 28.6125C6.0375 27.2625 4.96875 25.675 4.18125 23.85C3.39375 22.025 3 20.075 3 18C3 15.925 3.39375 13.975 4.18125 12.15C4.96875 10.325 6.0375 8.7375 7.3875 7.3875C8.7375 6.0375 10.325 4.96875 12.15 4.18125C13.975 3.39375 15.925 3 18 3C21.65 3 24.8438 4.14375 27.5813 6.43125C30.3188 8.71875 32.025 11.5875 32.7 15.0375H29.625C29.15 13.2125 28.2938 11.5813 27.0563 10.1438C25.8188 8.70625 24.3 7.625 22.5 6.9V7.5C22.5 8.325 22.2063 9.03125 21.6188 9.61875C21.0312 10.2062 20.325 10.5 19.5 10.5H16.5V13.5C16.5 13.925 16.3563 14.2812 16.0688 14.5688C15.7813 14.8562 15.425 15 15 15H12V18H15V22.5H13.5L6.3 15.3C6.225 15.75 6.15625 16.2 6.09375 16.65C6.03125 17.1 6 17.55 6 18C6 21.275 7.15 24.0875 9.45 26.4375C11.75 28.7875 14.6 29.975 18 30V33ZM31.65 32.25L26.85 27.45C26.325 27.75 25.7625 28 25.1625 28.2C24.5625 28.4 23.925 28.5 23.25 28.5C21.375 28.5 19.7812 27.8438 18.4688 26.5312C17.1562 25.2188 16.5 23.625 16.5 21.75C16.5 19.875 17.1562 18.2812 18.4688 16.9688C19.7812 15.6562 21.375 15 23.25 15C25.125 15 26.7188 15.6562 28.0312 16.9688C29.3438 18.2812 30 19.875 30 21.75C30 22.425 29.9 23.0625 29.7 23.6625C29.5 24.2625 29.25 24.825 28.95 25.35L33.75 30.15L31.65 32.25ZM23.25 25.5C24.3 25.5 25.1875 25.1375 25.9125 24.4125C26.6375 23.6875 27 22.8 27 21.75C27 20.7 26.6375 19.8125 25.9125 19.0875C25.1875 18.3625 24.3 18 23.25 18C22.2 18 21.3125 18.3625 20.5875 19.0875C19.8625 19.8125 19.5 20.7 19.5 21.75C19.5 22.8 19.8625 23.6875 20.5875 24.4125C21.3125 25.1375 22.2 25.5 23.25 25.5Z" fill="#35CD3A"/>
</g>
</svg>
